<?xml version="1.0" standalone="no"?>
<!DOCTYPE svg PUBLIC "-//W3C//DTD SVG 20010904//EN"
 "http://www.w3.org/TR/2001/REC-SVG-20010904/DTD/svg10.dtd">
<svg version="1.0" xmlns="http://www.w3.org/2000/svg"
 width="512.000000pt" height="512.000000pt" viewBox="0 0 512.000000 512.000000"
 preserveAspectRatio="xMidYMid meet">
<metadata>
Created by potrace 1.14, written by Peter Selinger 2001-2017
</metadata>
<g transform="translate(0.000000,512.000000) scale(0.100000,-0.100000)"
fill="#000000" stroke="none">
<path d="M472 4097 c-17 -7 -46 -25 -63 -42 -67 -62 -62 41 -64 -1485 -1
-1513 -4 -1434 58 -1498 64 -67 -105 -62 2159 -62 2018 0 2060 0 2097 19 51
27 98 83 107 128 4 21 8 657 8 1413 0 1045 -3 1384 -12 1411 -15 43 -75 102
-121 118 -50 16 -4123 14 -4169 -2z"/>
</g>
</svg>
